# xmcd CD database file
#
# Track frame offsets:
#	150
#	18505
#	34100
#	49070
#	63415
#	77177
#	91717
#	105602
#	121047
#	134715
#	149100
#	161567
#	170487
#	185625
#	199107
#	214700
#	230395
#	245697
#	258905
#	272615
#
# Disc length: 3836 seconds
#
# Revision: 1
# Processed by: cddbd v1.5.1PL0 Copyright (c) Steve Scherf et al.
# Submitted via: CDex 1.51
#
DISCID=210efa14
DTITLE=Paul Robeson - Ol' Man River
DYEAR=1990
DGENRE=Jazz
TTITLE0=Ol' Man River
TTITLE1=My Old Kentucky
TTITLE2=Lazy Bones
TTITLE3=My Lindy Lu
TTITLE4=Poor Old Joe
TTITLE5=Old Folks At Home (Swanee River)
TTITLE6=Just Keepin' On
TTITLE7=Little Pal
TTITLE8=Water Boy
TTITLE9=Shenandoah
TTITLE10=Swing Low, Sweet Chariot
TTITLE11=Joshua Fit The Battle Of Jericho
TTITLE12=Wagon Wheels
TTITLE13=Got The South In My Soul
TTITLE14=St Louis Blues
TTITLE15=Rockin' Chair
TTITLE16=River Stay 'Way From My Door
TTITLE17=Canoe Song
TTITLE18=Congo Lullaby
TTITLE19=Love Song
EXTD=YEAR: 1990
EXTT0=
EXTT1=
EXTT2=
EXTT3=
EXTT4=
EXTT5=
EXTT6=
EXTT7=
EXTT8=
EXTT9=
EXTT10=
EXTT11=
EXTT12=
EXTT13=
EXTT14=
EXTT15=
EXTT16=
EXTT17=
EXTT18=
EXTT19=
PLAYORDER=
